<?xml version="1.0" standalone="no"?>
<!DOCTYPE svg PUBLIC "-//W3C//DTD SVG 20010904//EN"
 "http://www.w3.org/TR/2001/REC-SVG-20010904/DTD/svg10.dtd">
<svg version="1.0" xmlns="http://www.w3.org/2000/svg"
 width="343.000000pt" height="294.000000pt" viewBox="0 0 343.000000 294.000000"
 preserveAspectRatio="xMidYMid meet">
<metadata>
Created by potrace 1.16, written by Peter Selinger 2001-2019
</metadata>
<g transform="translate(0.000000,294.000000) scale(0.100000,-0.100000)"
fill="#000000" stroke="none">
<path d="M319 2596 l-156 -173 46 -202 46 -202 65 -38 c36 -20 104 -60 152
-89 l86 -51 103 181 103 181 150 120 c83 66 152 124 154 128 3 6 -150 231
-177 262 -7 7 -363 57 -400 57 -9 -1 -86 -79 -172 -174z"/>
<path d="M2774 2745 c-89 -12 -168 -25 -176 -28 -12 -4 -155 -196 -191 -254
-5 -8 47 -55 147 -134 l154 -122 102 -179 c56 -98 106 -178 111 -178 14 0 271
150 290 169 9 10 33 94 58 209 41 187 42 193 24 215 -10 13 -80 91 -157 175
-160 175 -118 161 -362 127z"/>
<path d="M1139 1609 c-74 -55 -137 -103 -141 -107 -4 -4 -23 -75 -43 -157
l-35 -150 16 -190 c9 -104 18 -192 20 -194 2 -2 53 9 114 24 72 18 113 33 119
44 4 9 23 69 41 134 20 71 44 133 60 156 15 21 66 64 114 96 l86 58 -42 76
c-23 42 -72 129 -108 194 l-67 117 -134 -101z"/>
<path d="M2150 1618 c-29 -51 -77 -136 -106 -189 -30 -52 -54 -98 -54 -101 0
-4 42 -36 93 -71 52 -37 100 -79 111 -98 11 -19 36 -92 56 -163 l36 -130 113
-29 c62 -16 115 -27 118 -24 3 3 13 89 22 191 l17 186 -34 147 c-19 82 -39
154 -45 161 -6 7 -65 54 -131 104 -67 50 -126 95 -133 100 -8 6 -27 -19 -63
-84z"/>
<path d="M1565 707 c-82 -11 -151 -21 -152 -22 -8 -4 42 -142 55 -152 8 -7 73
-32 144 -55 l128 -42 138 45 137 45 27 78 c20 56 24 78 15 81 -18 6 -309 45
-327 44 -8 -1 -82 -11 -165 -22z"/>
<path d="M1608 265 c-70 -6 -130 -14 -133 -17 -7 -6 242 -108 264 -108 7 0 72
23 143 52 90 37 123 54 111 59 -10 4 -65 10 -123 13 -58 4 -112 9 -120 10 -8
2 -72 -2 -142 -9z"/>
</g>
</svg>
